<svg xmlns="http://www.w3.org/2000/svg" viewBox="0 0 512 512">
  <defs>
    <linearGradient id="fitly-gradient" x1="0%" y1="0%" x2="100%" y2="100%">
      <stop offset="0%" stop-color="#f97316"/>
      <stop offset="100%" stop-color="#ec4899"/>
    </linearGradient>
  </defs>
  
  <!-- Background with gradient -->
  <rect width="512" height="512" rx="108" fill="url(#fitly-gradient)"/>
  
  <!-- T-shirt icon (matching web app FitlyLogo.tsx) -->
  <g transform="translate(256, 270) scale(0.7) translate(-256, -256)">
    <!-- Body -->
    <path 
      d="M160 180 L160 400 C160 415 172 427 187 427 L325 427 C340 427 352 415 352 400 L352 180" 
      fill="white"
    />
    <!-- Collar -->
    <path 
      d="M200 130 C200 130 220 160 256 160 C292 160 312 130 312 130 L352 180 L256 200 L160 180 L200 130 Z" 
      fill="white"
    />
    <!-- Left sleeve -->
    <path 
      d="M160 180 L100 220 C90 226 85 240 90 252 L120 300 C125 310 138 315 150 310 L160 280" 
      fill="white"
    />
    <!-- Right sleeve -->
    <path 
      d="M352 180 L412 220 C422 226 427 240 422 252 L392 300 C387 310 374 315 362 310 L352 280" 
      fill="white"
    />
  </g>
  
  <!-- Sparkle effects -->
  <circle cx="390" cy="130" r="15" fill="white" opacity="0.8"/>
  <circle cx="415" cy="165" r="10" fill="white" opacity="0.6"/>
  <circle cx="430" cy="115" r="7" fill="white" opacity="0.5"/>
</svg>
